<svg width="100%" height="618" viewBox="0 0 1429 618" fill="none" xmlns="http://www.w3.org/2000/svg">
<path fill-rule="evenodd" clip-rule="evenodd" d="M0 475.385L39.2975 415.962C79.7858 356.538 158.381 237.692 238.167 154.5C317.953 71.3077 396.548 23.7692 476.333 47.5385C556.119 71.3077 634.714 166.385 714.5 202.038C794.286 237.692 872.881 213.923 952.667 154.5C1032.45 95.0769 1111.05 0 1190.83 0C1270.62 0 1349.21 95.0769 1389.7 142.615L1429 190.154V618H1389.7C1349.21 618 1270.62 618 1190.83 618C1111.05 618 1032.45 618 952.667 618C872.881 618 794.286 618 714.5 618C634.714 618 556.119 618 476.333 618C396.548 618 317.953 618 238.167 618C158.381 618 79.7858 618 39.2975 618H0V475.385Z" fill="#365C85"/>
<path fill-rule="evenodd" clip-rule="evenodd" d="M0 475.385L39.2975 415.962C79.7858 356.538 158.381 237.692 238.167 154.5C317.953 71.3077 396.548 23.7692 476.333 47.5385C556.119 71.3077 634.714 166.385 714.5 202.038C794.286 237.692 872.881 213.923 952.667 154.5C1032.45 95.0769 1111.05 0 1190.83 0C1270.62 0 1349.21 95.0769 1389.7 142.615L1429 190.154V618H1389.7C1349.21 618 1270.62 618 1190.83 618C1111.05 618 1032.45 618 952.667 618C872.881 618 794.286 618 714.5 618C634.714 618 556.119 618 476.333 618C396.548 618 317.953 618 238.167 618C158.381 618 79.7858 618 39.2975 618H0V475.385Z" fill="url(#paint0_linear)"/>
<defs>
<linearGradient id="paint0_linear" x1="714.5" y1="0" x2="714.5" y2="618" gradientUnits="userSpaceOnUse">
<stop stop-color="#365A83"/>
<stop offset="1" stop-color="#0B3766"/>
</linearGradient>
</defs>
</svg>



